<mxfile host="app.diagrams.net" agent="Mozilla/5.0 (Windows NT 10.0; Win64; x64; rv:137.0) Gecko/20100101 Firefox/137.0" version="26.2.12">
  <diagram name="1 oldal" id="JJt5xYzyaVMyF8iJSXM5">
    <mxGraphModel grid="1" page="1" gridSize="10" guides="1" tooltips="1" connect="1" arrows="1" fold="1" pageScale="1" pageWidth="827" pageHeight="1169" math="0" shadow="0">
      <root>
        <mxCell id="0" />
        <mxCell id="1" parent="0" />
        <mxCell id="vjhniqQhDacA8CHbRB0J-123" value="&lt;i style=&quot;&quot;&gt;Tecton&lt;/i&gt;" style="swimlane;fontStyle=1;align=center;verticalAlign=top;childLayout=stackLayout;horizontal=1;startSize=26;horizontalStack=0;resizeParent=1;resizeParentMax=0;resizeLast=0;collapsible=1;marginBottom=0;whiteSpace=wrap;html=1;" vertex="1" parent="1">
          <mxGeometry x="1480" y="640" width="230" height="330" as="geometry">
            <mxRectangle x="240" y="190" width="80" height="30" as="alternateBounds" />
          </mxGeometry>
        </mxCell>
        <mxCell id="vjhniqQhDacA8CHbRB0J-124" value="&lt;div&gt;+myceliaCapacity: int&lt;/div&gt;&lt;div&gt;+neighbours: List&amp;lt;Tecton&amp;gt;&lt;/div&gt;&lt;div&gt;+breakTimer: int&lt;/div&gt;" style="text;strokeColor=none;fillColor=none;align=left;verticalAlign=top;spacingLeft=4;spacingRight=4;overflow=hidden;rotatable=0;points=[[0,0.5],[1,0.5]];portConstraint=eastwest;whiteSpace=wrap;html=1;" vertex="1" parent="vjhniqQhDacA8CHbRB0J-123">
          <mxGeometry y="26" width="230" height="54" as="geometry" />
        </mxCell>
        <mxCell id="vjhniqQhDacA8CHbRB0J-125" value="" style="line;strokeWidth=1;fillColor=none;align=left;verticalAlign=middle;spacingTop=-1;spacingLeft=3;spacingRight=3;rotatable=0;labelPosition=right;points=[];portConstraint=eastwest;strokeColor=inherit;" vertex="1" parent="vjhniqQhDacA8CHbRB0J-123">
          <mxGeometry y="80" width="230" height="8" as="geometry" />
        </mxCell>
        <mxCell id="vjhniqQhDacA8CHbRB0J-126" value="&lt;div&gt;+onRoundBegin()&lt;/div&gt;&lt;div&gt;+cutMycelium()&lt;/div&gt;&lt;div&gt;+eatSpore(i: Insect)&lt;/div&gt;&lt;div&gt;+transferSpores(s: List&amp;lt;Spores&amp;gt;)&lt;/div&gt;&lt;div&gt;+distance(t: Tecton)&lt;/div&gt;&lt;div&gt;+checkNeighbourMyceliaSustain()&lt;/div&gt;&lt;div&gt;+myceliaCheckSustain()&lt;/div&gt;&lt;div&gt;+removeOccupant(i: Insect)&lt;/div&gt;&lt;div&gt;+addOccupant(i Insect)&lt;/div&gt;&lt;div&gt;+hasMycelium()&lt;/div&gt;&lt;div&gt;+addMycelium(m: Mycelium)&lt;/div&gt;&lt;div&gt;+addSpore(s: Spore)&lt;/div&gt;&lt;div&gt;+addNeighbour(t: Tecton)&lt;/div&gt;&lt;div&gt;+moveInsect(i: Insect)&lt;/div&gt;&lt;div&gt;&lt;i&gt;+sustaining(): boolean&lt;/i&gt;&lt;/div&gt;&lt;div&gt;+killOccupants()&lt;/div&gt;" style="text;strokeColor=none;fillColor=none;align=left;verticalAlign=top;spacingLeft=4;spacingRight=4;overflow=hidden;rotatable=0;points=[[0,0.5],[1,0.5]];portConstraint=eastwest;whiteSpace=wrap;html=1;" vertex="1" parent="vjhniqQhDacA8CHbRB0J-123">
          <mxGeometry y="88" width="230" height="242" as="geometry" />
        </mxCell>
        <mxCell id="vjhniqQhDacA8CHbRB0J-130" value="FertileTecton" style="swimlane;fontStyle=1;align=center;verticalAlign=top;childLayout=stackLayout;horizontal=1;startSize=26;horizontalStack=0;resizeParent=1;resizeParentMax=0;resizeLast=0;collapsible=1;marginBottom=0;whiteSpace=wrap;html=1;" vertex="1" parent="1">
          <mxGeometry x="1480" y="1000" width="230" height="60" as="geometry" />
        </mxCell>
        <mxCell id="vjhniqQhDacA8CHbRB0J-131" value="" style="line;strokeWidth=1;fillColor=none;align=left;verticalAlign=middle;spacingTop=-1;spacingLeft=3;spacingRight=3;rotatable=0;labelPosition=right;points=[];portConstraint=eastwest;strokeColor=inherit;" vertex="1" parent="vjhniqQhDacA8CHbRB0J-130">
          <mxGeometry y="26" width="230" height="8" as="geometry" />
        </mxCell>
        <mxCell id="vjhniqQhDacA8CHbRB0J-132" value="&lt;div&gt;+accept(v: TectonVisitor, m: Mushroom)&lt;/div&gt;" style="text;strokeColor=none;fillColor=none;align=left;verticalAlign=top;spacingLeft=4;spacingRight=4;overflow=hidden;rotatable=0;points=[[0,0.5],[1,0.5]];portConstraint=eastwest;whiteSpace=wrap;html=1;" vertex="1" parent="vjhniqQhDacA8CHbRB0J-130">
          <mxGeometry y="34" width="230" height="26" as="geometry" />
        </mxCell>
        <mxCell id="vjhniqQhDacA8CHbRB0J-134" value="" style="endArrow=block;endSize=16;endFill=0;html=1;rounded=0;edgeStyle=orthogonalEdgeStyle;" edge="1" parent="1" source="vjhniqQhDacA8CHbRB0J-130" target="vjhniqQhDacA8CHbRB0J-123">
          <mxGeometry width="160" relative="1" as="geometry">
            <mxPoint x="1404" y="773" as="sourcePoint" />
            <mxPoint x="1460" y="833" as="targetPoint" />
            <Array as="points">
              <mxPoint x="1580" y="922" />
              <mxPoint x="1580" y="922" />
            </Array>
          </mxGeometry>
        </mxCell>
        <mxCell id="vjhniqQhDacA8CHbRB0J-135" value="MultiLayeredTecton" style="swimlane;fontStyle=1;align=center;verticalAlign=top;childLayout=stackLayout;horizontal=1;startSize=26;horizontalStack=0;resizeParent=1;resizeParentMax=0;resizeLast=0;collapsible=1;marginBottom=0;whiteSpace=wrap;html=1;" vertex="1" parent="1">
          <mxGeometry x="1220" y="1120" width="180" height="80" as="geometry" />
        </mxCell>
        <mxCell id="vjhniqQhDacA8CHbRB0J-136" value="" style="line;strokeWidth=1;fillColor=none;align=left;verticalAlign=middle;spacingTop=-1;spacingLeft=3;spacingRight=3;rotatable=0;labelPosition=right;points=[];portConstraint=eastwest;strokeColor=inherit;" vertex="1" parent="vjhniqQhDacA8CHbRB0J-135">
          <mxGeometry y="26" width="180" height="8" as="geometry" />
        </mxCell>
        <mxCell id="vjhniqQhDacA8CHbRB0J-137" value="+accept(v: TectonVisitor, m: Mushroom)" style="text;strokeColor=none;fillColor=none;align=left;verticalAlign=top;spacingLeft=4;spacingRight=4;overflow=hidden;rotatable=0;points=[[0,0.5],[1,0.5]];portConstraint=eastwest;whiteSpace=wrap;html=1;" vertex="1" parent="vjhniqQhDacA8CHbRB0J-135">
          <mxGeometry y="34" width="180" height="46" as="geometry" />
        </mxCell>
        <mxCell id="vjhniqQhDacA8CHbRB0J-138" value="AridTecton" style="swimlane;fontStyle=1;align=center;verticalAlign=top;childLayout=stackLayout;horizontal=1;startSize=26;horizontalStack=0;resizeParent=1;resizeParentMax=0;resizeLast=0;collapsible=1;marginBottom=0;whiteSpace=wrap;html=1;" vertex="1" parent="1">
          <mxGeometry x="1600" y="1120" width="180" height="90" as="geometry" />
        </mxCell>
        <mxCell id="vjhniqQhDacA8CHbRB0J-139" value="" style="line;strokeWidth=1;fillColor=none;align=left;verticalAlign=middle;spacingTop=-1;spacingLeft=3;spacingRight=3;rotatable=0;labelPosition=right;points=[];portConstraint=eastwest;strokeColor=inherit;" vertex="1" parent="vjhniqQhDacA8CHbRB0J-138">
          <mxGeometry y="26" width="180" height="8" as="geometry" />
        </mxCell>
        <mxCell id="vjhniqQhDacA8CHbRB0J-140" value="&lt;div&gt;&lt;div&gt;+accept(v: TectonVisitor, m: Mushroom)&lt;/div&gt;&lt;/div&gt;&lt;div&gt;+onTurnBegin()&lt;/div&gt;&lt;div&gt;&lt;br&gt;&lt;/div&gt;" style="text;strokeColor=none;fillColor=none;align=left;verticalAlign=top;spacingLeft=4;spacingRight=4;overflow=hidden;rotatable=0;points=[[0,0.5],[1,0.5]];portConstraint=eastwest;whiteSpace=wrap;html=1;" vertex="1" parent="vjhniqQhDacA8CHbRB0J-138">
          <mxGeometry y="34" width="180" height="56" as="geometry" />
        </mxCell>
        <mxCell id="vjhniqQhDacA8CHbRB0J-141" value="" style="endArrow=block;endSize=16;endFill=0;html=1;rounded=0;edgeStyle=orthogonalEdgeStyle;" edge="1" parent="1">
          <mxGeometry width="160" relative="1" as="geometry">
            <mxPoint x="1679.6600000000003" y="1119.9999999999998" as="sourcePoint" />
            <mxPoint x="1679.6600000000003" y="1059.9999999999998" as="targetPoint" />
            <Array as="points">
              <mxPoint x="1679.66" y="1102" />
              <mxPoint x="1679.66" y="1102" />
            </Array>
          </mxGeometry>
        </mxCell>
        <mxCell id="vjhniqQhDacA8CHbRB0J-143" style="edgeStyle=orthogonalEdgeStyle;rounded=0;orthogonalLoop=1;jettySize=auto;html=1;exitX=0.5;exitY=1;exitDx=0;exitDy=0;" edge="1" parent="1">
          <mxGeometry relative="1" as="geometry">
            <mxPoint x="2055" y="1011.0000000000002" as="sourcePoint" />
            <mxPoint x="2055" y="1011.0000000000002" as="targetPoint" />
          </mxGeometry>
        </mxCell>
        <mxCell id="vjhniqQhDacA8CHbRB0J-144" value="Mycelium" style="swimlane;fontStyle=1;align=center;verticalAlign=top;childLayout=stackLayout;horizontal=1;startSize=26;horizontalStack=0;resizeParent=1;resizeParentMax=0;resizeLast=0;collapsible=1;marginBottom=0;whiteSpace=wrap;html=1;" vertex="1" parent="1">
          <mxGeometry x="1850" y="1150" width="180" height="170" as="geometry" />
        </mxCell>
        <mxCell id="IOsGtsC2Vo_H5-VLN_qF-1" value="&lt;div align=&quot;left&quot;&gt;&amp;nbsp;+growing: boolean&lt;/div&gt;&lt;div&gt;&amp;nbsp;+deathTimer: int&lt;/div&gt;" style="text;html=1;align=left;verticalAlign=middle;resizable=0;points=[];autosize=1;strokeColor=none;fillColor=none;" vertex="1" parent="vjhniqQhDacA8CHbRB0J-144">
          <mxGeometry y="26" width="180" height="40" as="geometry" />
        </mxCell>
        <mxCell id="vjhniqQhDacA8CHbRB0J-145" value="" style="line;strokeWidth=1;fillColor=none;align=left;verticalAlign=middle;spacingTop=-1;spacingLeft=3;spacingRight=3;rotatable=0;labelPosition=right;points=[];portConstraint=eastwest;strokeColor=inherit;" vertex="1" parent="vjhniqQhDacA8CHbRB0J-144">
          <mxGeometry y="66" width="180" height="6" as="geometry" />
        </mxCell>
        <mxCell id="vjhniqQhDacA8CHbRB0J-146" value="&lt;div&gt;+cutImmediate()&lt;/div&gt;&lt;div&gt;+cutWithDelay()&lt;/div&gt;&lt;div&gt;+delete()&lt;/div&gt;&lt;div&gt;+connectedToMushroom()&lt;/div&gt;&lt;div&gt;+onTunrBegin()&lt;/div&gt;&lt;div&gt;+setLocation(t: Tecton)&lt;/div&gt;&lt;div&gt;&lt;br&gt;&lt;/div&gt;&lt;div&gt;&lt;br&gt;&lt;/div&gt;" style="text;strokeColor=none;fillColor=none;align=left;verticalAlign=top;spacingLeft=4;spacingRight=4;overflow=hidden;rotatable=0;points=[[0,0.5],[1,0.5]];portConstraint=eastwest;whiteSpace=wrap;html=1;" vertex="1" parent="vjhniqQhDacA8CHbRB0J-144">
          <mxGeometry y="72" width="180" height="98" as="geometry" />
        </mxCell>
        <mxCell id="vjhniqQhDacA8CHbRB0J-147" value="MushroomBody" style="swimlane;fontStyle=1;align=center;verticalAlign=top;childLayout=stackLayout;horizontal=1;startSize=26;horizontalStack=0;resizeParent=1;resizeParentMax=0;resizeLast=0;collapsible=1;marginBottom=0;whiteSpace=wrap;html=1;" vertex="1" parent="1">
          <mxGeometry x="2050" y="1160" width="180" height="104" as="geometry" />
        </mxCell>
        <mxCell id="MW0wBxwSJ_RHP9YVrrTt-3" value="+remainingEjects: int" style="text;html=1;align=left;verticalAlign=middle;resizable=0;points=[];autosize=1;strokeColor=none;fillColor=none;fontSize=12;" vertex="1" parent="vjhniqQhDacA8CHbRB0J-147">
          <mxGeometry y="26" width="180" height="30" as="geometry" />
        </mxCell>
        <mxCell id="vjhniqQhDacA8CHbRB0J-149" value="" style="line;strokeWidth=1;fillColor=none;align=left;verticalAlign=middle;spacingTop=-1;spacingLeft=3;spacingRight=3;rotatable=0;labelPosition=right;points=[];portConstraint=eastwest;strokeColor=inherit;" vertex="1" parent="vjhniqQhDacA8CHbRB0J-147">
          <mxGeometry y="56" width="180" height="8" as="geometry" />
        </mxCell>
        <mxCell id="vjhniqQhDacA8CHbRB0J-150" value="&lt;div&gt;+ejectSpores(target: Tecton)&lt;/div&gt;&lt;div&gt;+onTurnBegin()&lt;/div&gt;&lt;div&gt;&lt;br&gt;&lt;/div&gt;" style="text;strokeColor=none;fillColor=none;align=left;verticalAlign=top;spacingLeft=4;spacingRight=4;overflow=hidden;rotatable=0;points=[[0,0.5],[1,0.5]];portConstraint=eastwest;whiteSpace=wrap;html=1;" vertex="1" parent="vjhniqQhDacA8CHbRB0J-147">
          <mxGeometry y="64" width="180" height="40" as="geometry" />
        </mxCell>
        <mxCell id="vjhniqQhDacA8CHbRB0J-151" value="&lt;i&gt;Spore&lt;/i&gt;" style="swimlane;fontStyle=1;align=center;verticalAlign=top;childLayout=stackLayout;horizontal=1;startSize=26;horizontalStack=0;resizeParent=1;resizeParentMax=0;resizeLast=0;collapsible=1;marginBottom=0;whiteSpace=wrap;html=1;" vertex="1" parent="1">
          <mxGeometry x="2135" y="470" width="180" height="60" as="geometry">
            <mxRectangle x="2135" y="470" width="70" height="30" as="alternateBounds" />
          </mxGeometry>
        </mxCell>
        <mxCell id="vjhniqQhDacA8CHbRB0J-152" value="" style="line;strokeWidth=1;fillColor=none;align=left;verticalAlign=middle;spacingTop=-1;spacingLeft=3;spacingRight=3;rotatable=0;labelPosition=right;points=[];portConstraint=eastwest;strokeColor=inherit;" vertex="1" parent="vjhniqQhDacA8CHbRB0J-151">
          <mxGeometry y="26" width="180" height="8" as="geometry" />
        </mxCell>
        <mxCell id="vjhniqQhDacA8CHbRB0J-153" value="+eatSpore(i: Insect)" style="text;strokeColor=none;fillColor=none;align=left;verticalAlign=top;spacingLeft=4;spacingRight=4;overflow=hidden;rotatable=0;points=[[0,0.5],[1,0.5]];portConstraint=eastwest;whiteSpace=wrap;html=1;" vertex="1" parent="vjhniqQhDacA8CHbRB0J-151">
          <mxGeometry y="34" width="180" height="26" as="geometry" />
        </mxCell>
        <mxCell id="vjhniqQhDacA8CHbRB0J-154" value="Insect" style="swimlane;fontStyle=1;align=center;verticalAlign=top;childLayout=stackLayout;horizontal=1;startSize=26;horizontalStack=0;resizeParent=1;resizeParentMax=0;resizeLast=0;collapsible=1;marginBottom=0;whiteSpace=wrap;html=1;" vertex="1" parent="1">
          <mxGeometry x="2170" y="640" width="160" height="300" as="geometry" />
        </mxCell>
        <mxCell id="vjhniqQhDacA8CHbRB0J-155" value="&lt;div&gt;+location:Tecton&lt;/div&gt;&lt;div&gt;+maxMoves: int&lt;/div&gt;&lt;div&gt;+remainingMoves: int&lt;/div&gt;&lt;div&gt;+sporesEaten: int&lt;/div&gt;&lt;div&gt;+effectTimer: int&lt;/div&gt;&lt;div&gt;+state: InsectState&lt;/div&gt;" style="text;strokeColor=none;fillColor=none;align=left;verticalAlign=top;spacingLeft=4;spacingRight=4;overflow=hidden;rotatable=0;points=[[0,0.5],[1,0.5]];portConstraint=eastwest;whiteSpace=wrap;html=1;" vertex="1" parent="vjhniqQhDacA8CHbRB0J-154">
          <mxGeometry y="26" width="160" height="94" as="geometry" />
        </mxCell>
        <mxCell id="vjhniqQhDacA8CHbRB0J-156" value="" style="line;strokeWidth=1;fillColor=none;align=left;verticalAlign=middle;spacingTop=-1;spacingLeft=3;spacingRight=3;rotatable=0;labelPosition=right;points=[];portConstraint=eastwest;strokeColor=inherit;" vertex="1" parent="vjhniqQhDacA8CHbRB0J-154">
          <mxGeometry y="120" width="160" height="8" as="geometry" />
        </mxCell>
        <mxCell id="vjhniqQhDacA8CHbRB0J-157" value="+cutMycelium()&lt;div&gt;+eatSpore()&lt;/div&gt;&lt;div&gt;+move(t: Tecton)&lt;/div&gt;&lt;div&gt;+onTurnBegin()&lt;/div&gt;&lt;div&gt;+beSlow()&lt;/div&gt;&lt;div&gt;+beFast()&lt;/div&gt;&lt;div&gt;+preventCut()&lt;/div&gt;&lt;div&gt;+beStunned()&lt;/div&gt;&lt;div&gt;+split()&lt;/div&gt;&lt;div&gt;+runAway()&lt;/div&gt;&lt;div&gt;+die()&lt;/div&gt;" style="text;strokeColor=none;fillColor=none;align=left;verticalAlign=top;spacingLeft=4;spacingRight=4;overflow=hidden;rotatable=0;points=[[0,0.5],[1,0.5]];portConstraint=eastwest;whiteSpace=wrap;html=1;" vertex="1" parent="vjhniqQhDacA8CHbRB0J-154">
          <mxGeometry y="128" width="160" height="172" as="geometry" />
        </mxCell>
        <mxCell id="vjhniqQhDacA8CHbRB0J-158" value="&lt;font style=&quot;font-weight: 700;&quot;&gt;&lt;span style=&quot;font-weight: 400; color: rgb(32, 33, 34); font-family: sans-serif; text-align: start; background-color: rgb(255, 255, 255);&quot;&gt;«&lt;/span&gt;&lt;span style=&quot;color: rgb(32, 33, 34); font-family: sans-serif; text-align: start; background-color: rgb(255, 255, 255); font-weight: 400;&quot;&gt;Interface&lt;/span&gt;&lt;span style=&quot;font-weight: 400; color: rgb(32, 33, 34); font-family: sans-serif; text-align: start; background-color: rgb(255, 255, 255);&quot;&gt;»&lt;/span&gt;&lt;/font&gt;&lt;div style=&quot;font-weight: 700; text-align: start;&quot;&gt;&lt;font face=&quot;sans-serif&quot;&gt;&lt;span style=&quot;background-color: rgb(255, 255, 255);&quot;&gt;TurnBeginSubscriber&lt;/span&gt;&lt;/font&gt;&lt;/div&gt;" style="swimlane;fontStyle=0;childLayout=stackLayout;horizontal=1;startSize=39;fillColor=none;horizontalStack=0;resizeParent=1;resizeParentMax=0;resizeLast=0;collapsible=1;marginBottom=0;whiteSpace=wrap;html=1;" vertex="1" parent="1">
          <mxGeometry x="1900" y="670" width="150" height="65" as="geometry" />
        </mxCell>
        <mxCell id="vjhniqQhDacA8CHbRB0J-159" value="+onTurnBegin()" style="text;strokeColor=none;fillColor=none;align=left;verticalAlign=top;spacingLeft=4;spacingRight=4;overflow=hidden;rotatable=0;points=[[0,0.5],[1,0.5]];portConstraint=eastwest;whiteSpace=wrap;html=1;" vertex="1" parent="vjhniqQhDacA8CHbRB0J-158">
          <mxGeometry y="39" width="150" height="26" as="geometry" />
        </mxCell>
        <mxCell id="vjhniqQhDacA8CHbRB0J-160" value="" style="endArrow=block;dashed=1;endFill=0;endSize=12;html=1;rounded=0;edgeStyle=orthogonalEdgeStyle;" edge="1" parent="1" source="vjhniqQhDacA8CHbRB0J-123" target="vjhniqQhDacA8CHbRB0J-184">
          <mxGeometry width="160" relative="1" as="geometry">
            <mxPoint x="1690" y="591" as="sourcePoint" />
            <mxPoint x="1580" y="740" as="targetPoint" />
            <Array as="points">
              <mxPoint x="1720" y="710" />
              <mxPoint x="1720" y="710" />
            </Array>
          </mxGeometry>
        </mxCell>
        <mxCell id="vjhniqQhDacA8CHbRB0J-161" value="" style="endArrow=block;dashed=1;endFill=0;endSize=12;html=1;rounded=0;edgeStyle=orthogonalEdgeStyle;jumpStyle=arc;jumpSize=12;" edge="1" parent="1" source="vKOiAcxIJ5L3KXaA3-O--42" target="vjhniqQhDacA8CHbRB0J-159">
          <mxGeometry width="160" relative="1" as="geometry">
            <mxPoint x="2150" y="1080" as="sourcePoint" />
            <mxPoint x="2410" y="1021" as="targetPoint" />
            <Array as="points">
              <mxPoint x="2040" y="1120" />
              <mxPoint x="1970" y="1120" />
            </Array>
          </mxGeometry>
        </mxCell>
        <mxCell id="vjhniqQhDacA8CHbRB0J-162" value="" style="endArrow=diamondThin;endFill=0;endSize=24;html=1;rounded=0;edgeStyle=orthogonalEdgeStyle;" edge="1" parent="1">
          <mxGeometry width="160" relative="1" as="geometry">
            <mxPoint x="2315" y="530" as="sourcePoint" />
            <mxPoint x="2230" y="1200" as="targetPoint" />
            <Array as="points">
              <mxPoint x="2315" y="510" />
              <mxPoint x="2410" y="510" />
              <mxPoint x="2410" y="1200" />
            </Array>
          </mxGeometry>
        </mxCell>
        <mxCell id="vKOiAcxIJ5L3KXaA3-O--15" value="MushroomSpores" style="edgeLabel;html=1;align=center;verticalAlign=middle;resizable=0;points=[];" vertex="1" connectable="0" parent="vjhniqQhDacA8CHbRB0J-162">
          <mxGeometry x="-0.1896" y="5" relative="1" as="geometry">
            <mxPoint x="-5" y="137" as="offset" />
          </mxGeometry>
        </mxCell>
        <mxCell id="MW0wBxwSJ_RHP9YVrrTt-6" value="1" style="edgeLabel;html=1;align=center;verticalAlign=middle;resizable=0;points=[];" connectable="0" vertex="1" parent="vjhniqQhDacA8CHbRB0J-162">
          <mxGeometry x="0.7016" y="-2" relative="1" as="geometry">
            <mxPoint x="-104" y="12" as="offset" />
          </mxGeometry>
        </mxCell>
        <mxCell id="MW0wBxwSJ_RHP9YVrrTt-7" value="0..*" style="edgeLabel;html=1;align=center;verticalAlign=middle;resizable=0;points=[];" connectable="0" vertex="1" parent="vjhniqQhDacA8CHbRB0J-162">
          <mxGeometry x="-0.9378" y="-3" relative="1" as="geometry">
            <mxPoint y="-13" as="offset" />
          </mxGeometry>
        </mxCell>
        <mxCell id="vjhniqQhDacA8CHbRB0J-163" value="" style="endArrow=block;dashed=1;endFill=0;html=1;rounded=0;jumpStyle=arc;jumpSize=12;endSize=12;fontStyle=0;edgeStyle=orthogonalEdgeStyle;" edge="1" parent="1" source="vjhniqQhDacA8CHbRB0J-154" target="vjhniqQhDacA8CHbRB0J-158">
          <mxGeometry width="160" relative="1" as="geometry">
            <mxPoint x="2390" y="1110" as="sourcePoint" />
            <mxPoint x="1990" y="730" as="targetPoint" />
            <Array as="points">
              <mxPoint x="2140" y="712" />
              <mxPoint x="2140" y="712" />
            </Array>
          </mxGeometry>
        </mxCell>
        <mxCell id="vjhniqQhDacA8CHbRB0J-164" value="" style="endArrow=diamondThin;endFill=0;endSize=24;html=1;rounded=0;edgeStyle=orthogonalEdgeStyle;jumpStyle=arc;jumpSize=12;" edge="1" parent="1" source="vjhniqQhDacA8CHbRB0J-151" target="vjhniqQhDacA8CHbRB0J-123">
          <mxGeometry width="160" relative="1" as="geometry">
            <mxPoint x="2550" y="615" as="sourcePoint" />
            <mxPoint x="1415" y="661" as="targetPoint" />
            <Array as="points">
              <mxPoint x="1220" y="480" />
              <mxPoint x="1220" y="730" />
            </Array>
          </mxGeometry>
        </mxCell>
        <mxCell id="vKOiAcxIJ5L3KXaA3-O--14" value="TectonSpores" style="edgeLabel;html=1;align=center;verticalAlign=middle;resizable=0;points=[];" vertex="1" connectable="0" parent="vjhniqQhDacA8CHbRB0J-164">
          <mxGeometry x="-0.1817" y="2" relative="1" as="geometry">
            <mxPoint y="-2" as="offset" />
          </mxGeometry>
        </mxCell>
        <mxCell id="MW0wBxwSJ_RHP9YVrrTt-9" value="0..*" style="edgeLabel;html=1;align=center;verticalAlign=middle;resizable=0;points=[];" connectable="0" vertex="1" parent="vjhniqQhDacA8CHbRB0J-164">
          <mxGeometry x="-0.8376" y="-4" relative="1" as="geometry">
            <mxPoint x="65" y="-6" as="offset" />
          </mxGeometry>
        </mxCell>
        <mxCell id="MW0wBxwSJ_RHP9YVrrTt-10" value="1" style="edgeLabel;html=1;align=center;verticalAlign=middle;resizable=0;points=[];" connectable="0" vertex="1" parent="vjhniqQhDacA8CHbRB0J-164">
          <mxGeometry x="0.8254" y="-1" relative="1" as="geometry">
            <mxPoint x="104" y="-21" as="offset" />
          </mxGeometry>
        </mxCell>
        <mxCell id="vjhniqQhDacA8CHbRB0J-166" value="&lt;div&gt;&lt;b&gt;&lt;i&gt;TectonVisitor&lt;/i&gt;&lt;/b&gt;&lt;/div&gt;" style="swimlane;fontStyle=0;childLayout=stackLayout;horizontal=1;startSize=40;fillColor=none;horizontalStack=0;resizeParent=1;resizeParentMax=0;resizeLast=0;collapsible=1;marginBottom=0;whiteSpace=wrap;html=1;" vertex="1" parent="1">
          <mxGeometry x="970" y="934" width="250" height="120" as="geometry" />
        </mxCell>
        <mxCell id="vjhniqQhDacA8CHbRB0J-168" value="+ visit(t: FertileTecton, m: Mushroom)&lt;div&gt;+ visit(t: MultiLayeredTecton,&amp;nbsp;&lt;span style=&quot;color: light-dark(rgb(0, 0, 0), rgb(255, 255, 255)); background-color: transparent;&quot;&gt;m: Mushroom&lt;/span&gt;&lt;span style=&quot;color: light-dark(rgb(0, 0, 0), rgb(255, 255, 255)); background-color: transparent;&quot;&gt;)&lt;/span&gt;&lt;/div&gt;&lt;div&gt;+ visit(t: AridTecton, m: Mushroom)&lt;span style=&quot;color: light-dark(rgb(0, 0, 0), rgb(255, 255, 255)); background-color: transparent;&quot;&gt;&lt;/span&gt;&lt;/div&gt;&lt;div&gt;+ visit(t: SemiFertileTecton, m: Mushroom)&lt;/div&gt;&lt;div&gt;+ visit(t: SustainingTecton, m: Mushroom)&lt;/div&gt;&lt;div&gt;&lt;br&gt;&lt;/div&gt;" style="text;strokeColor=none;fillColor=none;align=left;verticalAlign=top;spacingLeft=4;spacingRight=4;overflow=hidden;rotatable=0;points=[[0,0.5],[1,0.5]];portConstraint=eastwest;whiteSpace=wrap;html=1;" vertex="1" parent="vjhniqQhDacA8CHbRB0J-166">
          <mxGeometry y="40" width="250" height="80" as="geometry" />
        </mxCell>
        <mxCell id="vjhniqQhDacA8CHbRB0J-173" value="" style="endArrow=open;html=1;edgeStyle=orthogonalEdgeStyle;rounded=0;endFill=0;jumpStyle=arc;jumpSize=12;" edge="1" parent="1" source="vjhniqQhDacA8CHbRB0J-126" target="vjhniqQhDacA8CHbRB0J-147">
          <mxGeometry relative="1" as="geometry">
            <mxPoint x="1570" y="770" as="sourcePoint" />
            <mxPoint x="1850" y="990" as="targetPoint" />
            <Array as="points">
              <mxPoint x="1800" y="820" />
              <mxPoint x="1800" y="1140" />
              <mxPoint x="2100" y="1140" />
            </Array>
          </mxGeometry>
        </mxCell>
        <mxCell id="vjhniqQhDacA8CHbRB0J-174" value="1" style="edgeLabel;resizable=0;html=1;align=left;verticalAlign=bottom;" connectable="0" vertex="1" parent="vjhniqQhDacA8CHbRB0J-173">
          <mxGeometry x="-1" relative="1" as="geometry">
            <mxPoint x="10" y="20" as="offset" />
          </mxGeometry>
        </mxCell>
        <mxCell id="vjhniqQhDacA8CHbRB0J-175" value="0..1" style="edgeLabel;resizable=0;html=1;align=right;verticalAlign=bottom;" connectable="0" vertex="1" parent="vjhniqQhDacA8CHbRB0J-173">
          <mxGeometry x="1" relative="1" as="geometry">
            <mxPoint x="-20" as="offset" />
          </mxGeometry>
        </mxCell>
        <mxCell id="vKOiAcxIJ5L3KXaA3-O--13" value="TectonMushroomBody" style="edgeLabel;html=1;align=center;verticalAlign=middle;resizable=0;points=[];" vertex="1" connectable="0" parent="vjhniqQhDacA8CHbRB0J-173">
          <mxGeometry x="-0.5239" y="-2" relative="1" as="geometry">
            <mxPoint x="312" y="226" as="offset" />
          </mxGeometry>
        </mxCell>
        <mxCell id="nwVug6jm9DKtMcMspLVA-3" value="Location" style="edgeLabel;html=1;align=center;verticalAlign=middle;resizable=0;points=[];" connectable="0" vertex="1" parent="vjhniqQhDacA8CHbRB0J-173">
          <mxGeometry x="-0.7638" y="2" relative="1" as="geometry">
            <mxPoint x="-59" y="-8" as="offset" />
          </mxGeometry>
        </mxCell>
        <mxCell id="vjhniqQhDacA8CHbRB0J-176" value="" style="endArrow=diamondThin;endFill=0;endSize=24;html=1;rounded=0;edgeStyle=orthogonalEdgeStyle;jumpStyle=arc;jumpSize=12;" edge="1" parent="1" source="vjhniqQhDacA8CHbRB0J-144" target="vjhniqQhDacA8CHbRB0J-123">
          <mxGeometry width="160" relative="1" as="geometry">
            <mxPoint x="1660" y="1030" as="sourcePoint" />
            <mxPoint x="1820" y="1030" as="targetPoint" />
            <Array as="points">
              <mxPoint x="1820" y="1195" />
              <mxPoint x="1820" y="760" />
            </Array>
          </mxGeometry>
        </mxCell>
        <mxCell id="vKOiAcxIJ5L3KXaA3-O--12" value="TectonMycelia" style="edgeLabel;html=1;align=center;verticalAlign=middle;resizable=0;points=[];" vertex="1" connectable="0" parent="vjhniqQhDacA8CHbRB0J-176">
          <mxGeometry x="0.0847" y="2" relative="1" as="geometry">
            <mxPoint x="-8" y="261" as="offset" />
          </mxGeometry>
        </mxCell>
        <mxCell id="MW0wBxwSJ_RHP9YVrrTt-4" value="1" style="edgeLabel;html=1;align=center;verticalAlign=middle;resizable=0;points=[];" connectable="0" vertex="1" parent="vjhniqQhDacA8CHbRB0J-176">
          <mxGeometry x="0.3949" y="-3" relative="1" as="geometry">
            <mxPoint x="-83" y="-54" as="offset" />
          </mxGeometry>
        </mxCell>
        <mxCell id="MW0wBxwSJ_RHP9YVrrTt-5" value="0..*" style="edgeLabel;html=1;align=center;verticalAlign=middle;resizable=0;points=[];" connectable="0" vertex="1" parent="vjhniqQhDacA8CHbRB0J-176">
          <mxGeometry x="-0.9385" y="-2" relative="1" as="geometry">
            <mxPoint y="17" as="offset" />
          </mxGeometry>
        </mxCell>
        <mxCell id="nwVug6jm9DKtMcMspLVA-1" value="Location" style="edgeLabel;html=1;align=center;verticalAlign=middle;resizable=0;points=[];" connectable="0" vertex="1" parent="vjhniqQhDacA8CHbRB0J-176">
          <mxGeometry x="0.8051" y="2" relative="1" as="geometry">
            <mxPoint x="-7" y="-12" as="offset" />
          </mxGeometry>
        </mxCell>
        <mxCell id="vjhniqQhDacA8CHbRB0J-177" value="" style="endArrow=none;html=1;edgeStyle=orthogonalEdgeStyle;rounded=0;startArrow=open;startFill=0;" edge="1" parent="1" source="vjhniqQhDacA8CHbRB0J-123" target="vjhniqQhDacA8CHbRB0J-154">
          <mxGeometry relative="1" as="geometry">
            <mxPoint x="1560" y="950" as="sourcePoint" />
            <mxPoint x="1720" y="950" as="targetPoint" />
            <Array as="points">
              <mxPoint x="1650" y="620" />
              <mxPoint x="2180" y="620" />
            </Array>
          </mxGeometry>
        </mxCell>
        <mxCell id="vjhniqQhDacA8CHbRB0J-178" value="location" style="edgeLabel;resizable=0;html=1;align=left;verticalAlign=bottom;" connectable="0" vertex="1" parent="vjhniqQhDacA8CHbRB0J-177">
          <mxGeometry x="-1" relative="1" as="geometry">
            <mxPoint x="4" y="-20" as="offset" />
          </mxGeometry>
        </mxCell>
        <mxCell id="vjhniqQhDacA8CHbRB0J-179" value="occupants" style="edgeLabel;resizable=0;html=1;align=right;verticalAlign=bottom;" connectable="0" vertex="1" parent="vjhniqQhDacA8CHbRB0J-177">
          <mxGeometry x="1" relative="1" as="geometry">
            <mxPoint y="-20" as="offset" />
          </mxGeometry>
        </mxCell>
        <mxCell id="vjhniqQhDacA8CHbRB0J-180" value="1" style="edgeLabel;resizable=0;html=1;align=left;verticalAlign=bottom;" connectable="0" vertex="1" parent="vjhniqQhDacA8CHbRB0J-177">
          <mxGeometry x="-1" relative="1" as="geometry">
            <mxPoint x="-20" y="-11" as="offset" />
          </mxGeometry>
        </mxCell>
        <mxCell id="vjhniqQhDacA8CHbRB0J-181" value="0..*" style="edgeLabel;resizable=0;html=1;align=left;verticalAlign=bottom;" connectable="0" vertex="1" parent="vjhniqQhDacA8CHbRB0J-177">
          <mxGeometry x="-1" relative="1" as="geometry">
            <mxPoint x="490" as="offset" />
          </mxGeometry>
        </mxCell>
        <mxCell id="vjhniqQhDacA8CHbRB0J-184" value="&lt;font style=&quot;font-weight: 700;&quot;&gt;&lt;span style=&quot;font-weight: 400; color: rgb(32, 33, 34); font-family: sans-serif; text-align: start; background-color: rgb(255, 255, 255);&quot;&gt;«&lt;/span&gt;&lt;span style=&quot;color: rgb(32, 33, 34); font-family: sans-serif; text-align: start; background-color: rgb(255, 255, 255); font-weight: 400;&quot;&gt;Interface&lt;/span&gt;&lt;span style=&quot;font-weight: 400; color: rgb(32, 33, 34); font-family: sans-serif; text-align: start; background-color: rgb(255, 255, 255);&quot;&gt;»&lt;/span&gt;&lt;/font&gt;&lt;div style=&quot;font-weight: 700; text-align: start;&quot;&gt;&lt;font face=&quot;sans-serif&quot;&gt;&lt;span style=&quot;background-color: rgb(255, 255, 255);&quot;&gt;RoundBeginSubscriber&lt;/span&gt;&lt;/font&gt;&lt;/div&gt;" style="swimlane;fontStyle=0;childLayout=stackLayout;horizontal=1;startSize=39;fillColor=none;horizontalStack=0;resizeParent=1;resizeParentMax=0;resizeLast=0;collapsible=1;marginBottom=0;whiteSpace=wrap;html=1;" vertex="1" parent="1">
          <mxGeometry x="1740" y="670" width="150" height="65" as="geometry" />
        </mxCell>
        <mxCell id="vjhniqQhDacA8CHbRB0J-185" value="+onRoundBegin()" style="text;strokeColor=none;fillColor=none;align=left;verticalAlign=top;spacingLeft=4;spacingRight=4;overflow=hidden;rotatable=0;points=[[0,0.5],[1,0.5]];portConstraint=eastwest;whiteSpace=wrap;html=1;" vertex="1" parent="vjhniqQhDacA8CHbRB0J-184">
          <mxGeometry y="39" width="150" height="26" as="geometry" />
        </mxCell>
        <mxCell id="vjhniqQhDacA8CHbRB0J-207" value="&lt;div&gt;&lt;b&gt;SlownessSpore&lt;/b&gt;&lt;/div&gt;" style="swimlane;fontStyle=0;childLayout=stackLayout;horizontal=1;startSize=26;fillColor=none;horizontalStack=0;resizeParent=1;resizeParentMax=0;resizeLast=0;collapsible=1;marginBottom=0;whiteSpace=wrap;html=1;" vertex="1" parent="1">
          <mxGeometry x="1990" y="544.5" width="170" height="52" as="geometry" />
        </mxCell>
        <mxCell id="vjhniqQhDacA8CHbRB0J-208" value="+eatSpore(i: Insect)" style="text;strokeColor=none;fillColor=none;align=left;verticalAlign=top;spacingLeft=4;spacingRight=4;overflow=hidden;rotatable=0;points=[[0,0.5],[1,0.5]];portConstraint=eastwest;whiteSpace=wrap;html=1;" vertex="1" parent="vjhniqQhDacA8CHbRB0J-207">
          <mxGeometry y="26" width="170" height="26" as="geometry" />
        </mxCell>
        <mxCell id="vjhniqQhDacA8CHbRB0J-209" value="&lt;div&gt;&lt;b&gt;SpeedSpore&lt;/b&gt;&lt;/div&gt;" style="swimlane;fontStyle=0;childLayout=stackLayout;horizontal=1;startSize=26;fillColor=none;horizontalStack=0;resizeParent=1;resizeParentMax=0;resizeLast=0;collapsible=1;marginBottom=0;whiteSpace=wrap;html=1;" vertex="1" parent="1">
          <mxGeometry x="1810" y="545" width="170" height="52" as="geometry" />
        </mxCell>
        <mxCell id="vjhniqQhDacA8CHbRB0J-210" value="+eatSpore(i: Insect)" style="text;strokeColor=none;fillColor=none;align=left;verticalAlign=top;spacingLeft=4;spacingRight=4;overflow=hidden;rotatable=0;points=[[0,0.5],[1,0.5]];portConstraint=eastwest;whiteSpace=wrap;html=1;" vertex="1" parent="vjhniqQhDacA8CHbRB0J-209">
          <mxGeometry y="26" width="170" height="26" as="geometry" />
        </mxCell>
        <mxCell id="vjhniqQhDacA8CHbRB0J-211" value="&lt;div&gt;&lt;b&gt;PreventCutSpore&lt;/b&gt;&lt;/div&gt;" style="swimlane;fontStyle=0;childLayout=stackLayout;horizontal=1;startSize=26;fillColor=none;horizontalStack=0;resizeParent=1;resizeParentMax=0;resizeLast=0;collapsible=1;marginBottom=0;whiteSpace=wrap;html=1;" vertex="1" parent="1">
          <mxGeometry x="1630" y="545" width="170" height="52" as="geometry" />
        </mxCell>
        <mxCell id="vjhniqQhDacA8CHbRB0J-212" value="+eatSpore(i: Insect)" style="text;strokeColor=none;fillColor=none;align=left;verticalAlign=top;spacingLeft=4;spacingRight=4;overflow=hidden;rotatable=0;points=[[0,0.5],[1,0.5]];portConstraint=eastwest;whiteSpace=wrap;html=1;" vertex="1" parent="vjhniqQhDacA8CHbRB0J-211">
          <mxGeometry y="26" width="170" height="26" as="geometry" />
        </mxCell>
        <mxCell id="vjhniqQhDacA8CHbRB0J-213" value="&lt;div&gt;&lt;b&gt;StunSpore&lt;/b&gt;&lt;/div&gt;" style="swimlane;fontStyle=0;childLayout=stackLayout;horizontal=1;startSize=26;fillColor=none;horizontalStack=0;resizeParent=1;resizeParentMax=0;resizeLast=0;collapsible=1;marginBottom=0;whiteSpace=wrap;html=1;" vertex="1" parent="1">
          <mxGeometry x="1450" y="544.5" width="170" height="52" as="geometry" />
        </mxCell>
        <mxCell id="vjhniqQhDacA8CHbRB0J-214" value="+eatSpore(i: Insect)" style="text;strokeColor=none;fillColor=none;align=left;verticalAlign=top;spacingLeft=4;spacingRight=4;overflow=hidden;rotatable=0;points=[[0,0.5],[1,0.5]];portConstraint=eastwest;whiteSpace=wrap;html=1;" vertex="1" parent="vjhniqQhDacA8CHbRB0J-213">
          <mxGeometry y="26" width="170" height="26" as="geometry" />
        </mxCell>
        <mxCell id="vjhniqQhDacA8CHbRB0J-215" value="" style="endArrow=block;endSize=16;endFill=0;html=1;rounded=0;edgeStyle=orthogonalEdgeStyle;" edge="1" parent="1" source="vjhniqQhDacA8CHbRB0J-209" target="vjhniqQhDacA8CHbRB0J-151">
          <mxGeometry width="160" relative="1" as="geometry">
            <mxPoint x="1825" y="540" as="sourcePoint" />
            <mxPoint x="2145" y="450" as="targetPoint" />
            <Array as="points">
              <mxPoint x="1930" y="510" />
            </Array>
          </mxGeometry>
        </mxCell>
        <mxCell id="vjhniqQhDacA8CHbRB0J-216" value="" style="endArrow=none;html=1;edgeStyle=orthogonalEdgeStyle;rounded=0;startArrow=none;startFill=0;endFill=0;" edge="1" parent="1" source="vjhniqQhDacA8CHbRB0J-154" target="vjhniqQhDacA8CHbRB0J-151">
          <mxGeometry relative="1" as="geometry">
            <mxPoint x="1780" y="650" as="sourcePoint" />
            <mxPoint x="1940" y="650" as="targetPoint" />
            <Array as="points">
              <mxPoint x="2225" y="610" />
              <mxPoint x="2225" y="610" />
            </Array>
          </mxGeometry>
        </mxCell>
        <mxCell id="vjhniqQhDacA8CHbRB0J-217" value="eats ▲" style="edgeLabel;html=1;align=center;verticalAlign=middle;resizable=0;points=[];" vertex="1" connectable="0" parent="vjhniqQhDacA8CHbRB0J-216">
          <mxGeometry x="0.0154" y="-3" relative="1" as="geometry">
            <mxPoint x="17" y="16" as="offset" />
          </mxGeometry>
        </mxCell>
        <mxCell id="vjhniqQhDacA8CHbRB0J-218" value="&lt;div&gt;1&lt;/div&gt;" style="edgeLabel;html=1;align=center;verticalAlign=middle;resizable=0;points=[];" vertex="1" connectable="0" parent="vjhniqQhDacA8CHbRB0J-216">
          <mxGeometry x="0.6583" y="-2" relative="1" as="geometry">
            <mxPoint x="8" y="-9" as="offset" />
          </mxGeometry>
        </mxCell>
        <mxCell id="vjhniqQhDacA8CHbRB0J-219" value="&lt;div&gt;1&lt;/div&gt;" style="edgeLabel;html=1;align=center;verticalAlign=middle;resizable=0;points=[];" vertex="1" connectable="0" parent="vjhniqQhDacA8CHbRB0J-216">
          <mxGeometry x="0.6583" y="-2" relative="1" as="geometry">
            <mxPoint x="-17" y="81" as="offset" />
          </mxGeometry>
        </mxCell>
        <mxCell id="vjhniqQhDacA8CHbRB0J-220" value="" style="endArrow=block;endFill=0;endSize=12;html=1;rounded=0;edgeStyle=orthogonalEdgeStyle;" edge="1" parent="1" source="vjhniqQhDacA8CHbRB0J-235" target="vjhniqQhDacA8CHbRB0J-166">
          <mxGeometry width="160" relative="1" as="geometry">
            <mxPoint x="944.96" y="854" as="sourcePoint" />
            <mxPoint x="1060.0034782608695" y="935" as="targetPoint" />
            <Array as="points">
              <mxPoint x="1040" y="1120" />
              <mxPoint x="1040" y="1120" />
            </Array>
          </mxGeometry>
        </mxCell>
        <mxCell id="vjhniqQhDacA8CHbRB0J-221" value="SemiFertileTecton" style="swimlane;fontStyle=1;align=center;verticalAlign=top;childLayout=stackLayout;horizontal=1;startSize=26;horizontalStack=0;resizeParent=1;resizeParentMax=0;resizeLast=0;collapsible=1;marginBottom=0;whiteSpace=wrap;html=1;" vertex="1" parent="1">
          <mxGeometry x="1290" y="830" width="155" height="80" as="geometry" />
        </mxCell>
        <mxCell id="vjhniqQhDacA8CHbRB0J-222" value="" style="line;strokeWidth=1;fillColor=none;align=left;verticalAlign=middle;spacingTop=-1;spacingLeft=3;spacingRight=3;rotatable=0;labelPosition=right;points=[];portConstraint=eastwest;strokeColor=inherit;" vertex="1" parent="vjhniqQhDacA8CHbRB0J-221">
          <mxGeometry y="26" width="155" height="8" as="geometry" />
        </mxCell>
        <mxCell id="vjhniqQhDacA8CHbRB0J-223" value="+accept(v: TectonVisitor, m: Mushroom)" style="text;strokeColor=none;fillColor=none;align=left;verticalAlign=top;spacingLeft=4;spacingRight=4;overflow=hidden;rotatable=0;points=[[0,0.5],[1,0.5]];portConstraint=eastwest;whiteSpace=wrap;html=1;" vertex="1" parent="vjhniqQhDacA8CHbRB0J-221">
          <mxGeometry y="34" width="155" height="46" as="geometry" />
        </mxCell>
        <mxCell id="vjhniqQhDacA8CHbRB0J-225" value="&lt;span style=&quot;color: rgb(32, 33, 34); font-family: sans-serif; text-align: start;&quot;&gt;«&lt;/span&gt;Use&lt;span style=&quot;color: rgb(32, 33, 34); font-family: sans-serif; text-align: start;&quot;&gt;»&lt;/span&gt;" style="endArrow=open;endSize=12;dashed=1;html=1;rounded=0;edgeStyle=orthogonalEdgeStyle;" edge="1" parent="1" target="vjhniqQhDacA8CHbRB0J-130">
          <mxGeometry x="-0.1027" width="160" relative="1" as="geometry">
            <mxPoint x="1220" y="980" as="sourcePoint" />
            <mxPoint x="1480" y="982" as="targetPoint" />
            <Array as="points">
              <mxPoint x="1220" y="982" />
              <mxPoint x="1520" y="982" />
            </Array>
            <mxPoint as="offset" />
          </mxGeometry>
        </mxCell>
        <mxCell id="vjhniqQhDacA8CHbRB0J-226" value="&lt;span style=&quot;color: rgb(32, 33, 34); font-family: sans-serif; text-align: start;&quot;&gt;«&lt;/span&gt;Use&lt;span style=&quot;color: rgb(32, 33, 34); font-family: sans-serif; text-align: start;&quot;&gt;»&lt;/span&gt;" style="endArrow=open;endSize=12;dashed=1;html=1;rounded=0;edgeStyle=orthogonalEdgeStyle;" edge="1" parent="1" source="vjhniqQhDacA8CHbRB0J-166" target="vjhniqQhDacA8CHbRB0J-221">
          <mxGeometry x="-0.1429" width="160" relative="1" as="geometry">
            <mxPoint x="1110" y="944" as="sourcePoint" />
            <mxPoint x="1260" y="801" as="targetPoint" />
            <Array as="points">
              <mxPoint x="1250" y="950" />
              <mxPoint x="1250" y="950" />
            </Array>
            <mxPoint as="offset" />
          </mxGeometry>
        </mxCell>
        <mxCell id="vjhniqQhDacA8CHbRB0J-227" value="&lt;span style=&quot;color: rgb(32, 33, 34); font-family: sans-serif; text-align: start;&quot;&gt;«&lt;/span&gt;Use&lt;span style=&quot;color: rgb(32, 33, 34); font-family: sans-serif; text-align: start;&quot;&gt;»&lt;/span&gt;" style="endArrow=open;endSize=12;dashed=1;html=1;rounded=0;edgeStyle=orthogonalEdgeStyle;exitX=1;exitY=0.5;exitDx=0;exitDy=0;" edge="1" parent="1" source="vjhniqQhDacA8CHbRB0J-168" target="vjhniqQhDacA8CHbRB0J-135">
          <mxGeometry x="0.2982" width="160" relative="1" as="geometry">
            <mxPoint x="1230" y="1010" as="sourcePoint" />
            <mxPoint x="1420" y="1008" as="targetPoint" />
            <Array as="points">
              <mxPoint x="1240" y="1009" />
              <mxPoint x="1240" y="1010" />
              <mxPoint x="1280" y="1010" />
              <mxPoint x="1280" y="1130" />
            </Array>
            <mxPoint as="offset" />
          </mxGeometry>
        </mxCell>
        <mxCell id="vjhniqQhDacA8CHbRB0J-228" value="&lt;span style=&quot;color: rgb(32, 33, 34); font-family: sans-serif; text-align: start;&quot;&gt;«&lt;/span&gt;Use&lt;span style=&quot;color: rgb(32, 33, 34); font-family: sans-serif; text-align: start;&quot;&gt;»&lt;/span&gt;" style="endArrow=open;endSize=12;dashed=1;html=1;rounded=0;edgeStyle=orthogonalEdgeStyle;" edge="1" parent="1" source="vjhniqQhDacA8CHbRB0J-166" target="vjhniqQhDacA8CHbRB0J-140">
          <mxGeometry x="0.2105" width="160" relative="1" as="geometry">
            <mxPoint x="1200" y="1050" as="sourcePoint" />
            <mxPoint x="1630" y="1166.988" as="targetPoint" />
            <Array as="points">
              <mxPoint x="1180" y="1250" />
              <mxPoint x="1670" y="1250" />
            </Array>
            <mxPoint as="offset" />
          </mxGeometry>
        </mxCell>
        <mxCell id="vjhniqQhDacA8CHbRB0J-229" value="&lt;strong data-end=&quot;171&quot; data-start=&quot;144&quot;&gt;MyceliumGrowthEvaluator&lt;/strong&gt; " style="swimlane;fontStyle=0;childLayout=stackLayout;horizontal=1;startSize=40;fillColor=none;horizontalStack=0;resizeParent=1;resizeParentMax=0;resizeLast=0;collapsible=1;marginBottom=0;whiteSpace=wrap;html=1;" vertex="1" parent="1">
          <mxGeometry x="1140" y="1270" width="250" height="120" as="geometry" />
        </mxCell>
        <mxCell id="vjhniqQhDacA8CHbRB0J-231" value="+ visit(t: FertileTecton, m: Mycelium)&lt;div&gt;+ visit(t: MultiLayeredTecton,&amp;nbsp;&lt;span style=&quot;color: light-dark(rgb(0, 0, 0), rgb(255, 255, 255)); background-color: transparent;&quot;&gt;m: &lt;/span&gt;Mycelium&lt;span style=&quot;color: light-dark(rgb(0, 0, 0), rgb(255, 255, 255)); background-color: transparent;&quot;&gt;)&lt;/span&gt;&lt;/div&gt;&lt;div&gt;+ visit(t: AridTecton, m:&amp;nbsp;Mycelium)&lt;span style=&quot;color: light-dark(rgb(0, 0, 0), rgb(255, 255, 255)); background-color: transparent;&quot;&gt;&lt;/span&gt;&lt;/div&gt;&lt;div&gt;+ visit(t: SemiFertileTecton, m:&amp;nbsp;Mycelium)&lt;/div&gt;&lt;div&gt;&lt;div&gt;+ visit(t: SustainingTecton, m: Mycelium)&lt;/div&gt;&lt;br&gt;&lt;/div&gt;" style="text;strokeColor=none;fillColor=none;align=left;verticalAlign=top;spacingLeft=4;spacingRight=4;overflow=hidden;rotatable=0;points=[[0,0.5],[1,0.5]];portConstraint=eastwest;whiteSpace=wrap;html=1;" vertex="1" parent="vjhniqQhDacA8CHbRB0J-229">
          <mxGeometry y="40" width="250" height="80" as="geometry" />
        </mxCell>
        <mxCell id="vjhniqQhDacA8CHbRB0J-235" value="&lt;strong data-end=&quot;171&quot; data-start=&quot;144&quot;&gt;MushroomBodyGrowthEvaluator&lt;/strong&gt; " style="swimlane;fontStyle=0;childLayout=stackLayout;horizontal=1;startSize=40;fillColor=none;horizontalStack=0;resizeParent=1;resizeParentMax=0;resizeLast=0;collapsible=1;marginBottom=0;whiteSpace=wrap;html=1;" vertex="1" parent="1">
          <mxGeometry x="827" y="1270" width="280" height="120" as="geometry" />
        </mxCell>
        <mxCell id="vjhniqQhDacA8CHbRB0J-237" value="+ visit(t: FertileTecton, m: MushroomBody)&lt;div&gt;+ visit(t: MultiLayeredTecton,&amp;nbsp;&lt;span style=&quot;color: light-dark(rgb(0, 0, 0), rgb(255, 255, 255)); background-color: transparent;&quot;&gt;m: &lt;/span&gt;MushroomBody&lt;span style=&quot;color: light-dark(rgb(0, 0, 0), rgb(255, 255, 255)); background-color: transparent;&quot;&gt;)&lt;/span&gt;&lt;/div&gt;&lt;div&gt;+ visit(t: AridTecton, m:&amp;nbsp;MushroomBody)&lt;span style=&quot;color: light-dark(rgb(0, 0, 0), rgb(255, 255, 255)); background-color: transparent;&quot;&gt;&lt;/span&gt;&lt;/div&gt;&lt;div&gt;+ visit(t: SemiFertileTecton, m:&amp;nbsp;MushroomBody)&lt;/div&gt;&lt;div&gt;&lt;div&gt;+ visit(t: SustainingTecton, m:&amp;nbsp;MushroomBody)&lt;/div&gt;&lt;br&gt;&lt;/div&gt;" style="text;strokeColor=none;fillColor=none;align=left;verticalAlign=top;spacingLeft=4;spacingRight=4;overflow=hidden;rotatable=0;points=[[0,0.5],[1,0.5]];portConstraint=eastwest;whiteSpace=wrap;html=1;" vertex="1" parent="vjhniqQhDacA8CHbRB0J-235">
          <mxGeometry y="40" width="280" height="80" as="geometry" />
        </mxCell>
        <mxCell id="vjhniqQhDacA8CHbRB0J-241" value="" style="endArrow=none;html=1;rounded=0;edgeStyle=orthogonalEdgeStyle;" edge="1" parent="1" target="vjhniqQhDacA8CHbRB0J-211">
          <mxGeometry width="50" height="50" relative="1" as="geometry">
            <mxPoint x="1930" y="510" as="sourcePoint" />
            <mxPoint x="2000" y="570" as="targetPoint" />
            <Array as="points">
              <mxPoint x="1721" y="510" />
            </Array>
          </mxGeometry>
        </mxCell>
        <mxCell id="vjhniqQhDacA8CHbRB0J-242" value="" style="endArrow=none;html=1;rounded=0;edgeStyle=orthogonalEdgeStyle;" edge="1" parent="1">
          <mxGeometry width="50" height="50" relative="1" as="geometry">
            <mxPoint x="1750" y="510" as="sourcePoint" />
            <mxPoint x="1530" y="545" as="targetPoint" />
            <Array as="points">
              <mxPoint x="1739" y="510" />
              <mxPoint x="1530" y="510" />
            </Array>
          </mxGeometry>
        </mxCell>
        <mxCell id="vjhniqQhDacA8CHbRB0J-243" value="" style="endArrow=none;html=1;rounded=0;" edge="1" parent="1" target="vjhniqQhDacA8CHbRB0J-207">
          <mxGeometry width="50" height="50" relative="1" as="geometry">
            <mxPoint x="2075" y="510" as="sourcePoint" />
            <mxPoint x="1731" y="555" as="targetPoint" />
          </mxGeometry>
        </mxCell>
        <mxCell id="vKOiAcxIJ5L3KXaA3-O--5" value="&lt;div&gt;&lt;div&gt;&lt;b&gt;&lt;font&gt;&lt;span style=&quot;color: rgb(32, 33, 34); font-family: sans-serif; text-align: start; background-color: rgb(255, 255, 255);&quot;&gt;«Enumeration&lt;/span&gt;&lt;span style=&quot;color: rgb(32, 33, 34); font-family: sans-serif; text-align: start; background-color: rgb(255, 255, 255);&quot;&gt;»&lt;/span&gt;&lt;/font&gt;&lt;/b&gt;&lt;/div&gt;&lt;/div&gt;&lt;div&gt;&lt;b&gt;InsectState&lt;/b&gt;&lt;/div&gt;" style="swimlane;fontStyle=0;childLayout=stackLayout;horizontal=1;startSize=40;fillColor=none;horizontalStack=0;resizeParent=1;resizeParentMax=0;resizeLast=0;collapsible=1;marginBottom=0;whiteSpace=wrap;html=1;" vertex="1" parent="1">
          <mxGeometry x="2005" y="909" width="140" height="126" as="geometry" />
        </mxCell>
        <mxCell id="vKOiAcxIJ5L3KXaA3-O--6" value="&lt;div&gt;Normal&lt;/div&gt;&lt;div&gt;Slow&lt;/div&gt;&lt;div&gt;Fast&lt;/div&gt;&lt;div&gt;CannotCut&lt;/div&gt;&lt;div&gt;Stun&lt;/div&gt;" style="text;strokeColor=none;fillColor=none;align=left;verticalAlign=top;spacingLeft=4;spacingRight=4;overflow=hidden;rotatable=0;points=[[0,0.5],[1,0.5]];portConstraint=eastwest;whiteSpace=wrap;html=1;" vertex="1" parent="vKOiAcxIJ5L3KXaA3-O--5">
          <mxGeometry y="40" width="140" height="60" as="geometry" />
        </mxCell>
        <mxCell id="vKOiAcxIJ5L3KXaA3-O--10" value="Stun" style="text;strokeColor=none;fillColor=none;align=left;verticalAlign=top;spacingLeft=4;spacingRight=4;overflow=hidden;rotatable=0;points=[[0,0.5],[1,0.5]];portConstraint=eastwest;whiteSpace=wrap;html=1;" vertex="1" parent="vKOiAcxIJ5L3KXaA3-O--5">
          <mxGeometry y="100" width="140" height="26" as="geometry" />
        </mxCell>
        <mxCell id="vKOiAcxIJ5L3KXaA3-O--11" value="&lt;span style=&quot;color: rgb(32, 33, 34); font-family: sans-serif; text-align: start;&quot;&gt;«&lt;/span&gt;Use&lt;span style=&quot;color: rgb(32, 33, 34); font-family: sans-serif; text-align: start;&quot;&gt;»&lt;/span&gt;" style="endArrow=open;endSize=12;dashed=1;html=1;rounded=0;edgeStyle=orthogonalEdgeStyle;" edge="1" parent="1" source="vKOiAcxIJ5L3KXaA3-O--5" target="vjhniqQhDacA8CHbRB0J-154">
          <mxGeometry x="-0.3714" width="160" relative="1" as="geometry">
            <mxPoint x="2170" y="880" as="sourcePoint" />
            <mxPoint x="2330" y="880" as="targetPoint" />
            <Array as="points">
              <mxPoint x="2250" y="980" />
            </Array>
            <mxPoint as="offset" />
          </mxGeometry>
        </mxCell>
        <mxCell id="vKOiAcxIJ5L3KXaA3-O--36" value="" style="endArrow=open;endSize=12;dashed=1;html=1;rounded=0;edgeStyle=orthogonalEdgeStyle;" edge="1" parent="1" source="vjhniqQhDacA8CHbRB0J-144" target="vjhniqQhDacA8CHbRB0J-229">
          <mxGeometry x="0.1285" y="-80" width="160" relative="1" as="geometry">
            <mxPoint x="1850" y="1290.0034782608698" as="sourcePoint" />
            <mxPoint x="1390.0000000000002" y="1290.0034782608698" as="targetPoint" />
            <Array as="points">
              <mxPoint x="1620" y="1260" />
              <mxPoint x="1620" y="1330" />
            </Array>
            <mxPoint as="offset" />
          </mxGeometry>
        </mxCell>
        <mxCell id="vKOiAcxIJ5L3KXaA3-O--37" value="&lt;div&gt;&lt;font&gt;&lt;span style=&quot;color: rgb(32, 33, 34); font-family: sans-serif; text-align: start; background-color: rgb(255, 255, 255);&quot;&gt;«&lt;/span&gt;Create&lt;span style=&quot;color: rgb(32, 33, 34); font-family: sans-serif; text-align: start; background-color: rgb(255, 255, 255);&quot;&gt;»&lt;/span&gt;&lt;/font&gt;&lt;/div&gt;" style="edgeLabel;html=1;align=center;verticalAlign=middle;resizable=0;points=[];" vertex="1" connectable="0" parent="vKOiAcxIJ5L3KXaA3-O--36">
          <mxGeometry x="-0.0031" y="2" relative="1" as="geometry">
            <mxPoint x="-82" y="36" as="offset" />
          </mxGeometry>
        </mxCell>
        <mxCell id="vKOiAcxIJ5L3KXaA3-O--39" value="" style="endArrow=open;endSize=12;dashed=1;html=1;rounded=0;edgeStyle=orthogonalEdgeStyle;exitX=0.889;exitY=0.983;exitDx=0;exitDy=0;exitPerimeter=0;" edge="1" parent="1" target="vjhniqQhDacA8CHbRB0J-235">
          <mxGeometry x="0.1285" y="-80" width="160" relative="1" as="geometry">
            <mxPoint x="2180.0199999999995" y="1264" as="sourcePoint" />
            <mxPoint x="950" y="1360" as="targetPoint" />
            <Array as="points">
              <mxPoint x="2180" y="1510" />
              <mxPoint x="950" y="1510" />
            </Array>
            <mxPoint as="offset" />
          </mxGeometry>
        </mxCell>
        <mxCell id="vKOiAcxIJ5L3KXaA3-O--40" value="&lt;div&gt;&lt;font&gt;&lt;span style=&quot;color: rgb(32, 33, 34); font-family: sans-serif; text-align: start; background-color: rgb(255, 255, 255);&quot;&gt;«&lt;/span&gt;Create&lt;span style=&quot;color: rgb(32, 33, 34); font-family: sans-serif; text-align: start; background-color: rgb(255, 255, 255);&quot;&gt;»&lt;/span&gt;&lt;/font&gt;&lt;/div&gt;" style="edgeLabel;html=1;align=center;verticalAlign=middle;resizable=0;points=[];" vertex="1" connectable="0" parent="vKOiAcxIJ5L3KXaA3-O--39">
          <mxGeometry x="-0.0031" y="2" relative="1" as="geometry">
            <mxPoint x="-88" y="-2" as="offset" />
          </mxGeometry>
        </mxCell>
        <mxCell id="vKOiAcxIJ5L3KXaA3-O--42" value="&lt;i&gt;Mushroom&lt;/i&gt;" style="swimlane;fontStyle=1;align=center;verticalAlign=top;childLayout=stackLayout;horizontal=1;startSize=26;horizontalStack=0;resizeParent=1;resizeParentMax=0;resizeLast=0;collapsible=1;marginBottom=0;whiteSpace=wrap;html=1;" vertex="1" parent="1">
          <mxGeometry x="1920" y="1360" width="200" height="110" as="geometry" />
        </mxCell>
        <mxCell id="vKOiAcxIJ5L3KXaA3-O--43" value="" style="line;strokeWidth=1;fillColor=none;align=left;verticalAlign=middle;spacingTop=-1;spacingLeft=3;spacingRight=3;rotatable=0;labelPosition=right;points=[];portConstraint=eastwest;strokeColor=inherit;" vertex="1" parent="vKOiAcxIJ5L3KXaA3-O--42">
          <mxGeometry y="26" width="200" height="8" as="geometry" />
        </mxCell>
        <mxCell id="vKOiAcxIJ5L3KXaA3-O--44" value="&lt;div&gt;+delete()&lt;/div&gt;&lt;div&gt;+grow(sporeCount: int)&lt;/div&gt;&lt;div&gt;+onTurnBegin()&lt;/div&gt;" style="text;strokeColor=none;fillColor=none;align=left;verticalAlign=top;spacingLeft=4;spacingRight=4;overflow=hidden;rotatable=0;points=[[0,0.5],[1,0.5]];portConstraint=eastwest;whiteSpace=wrap;html=1;" vertex="1" parent="vKOiAcxIJ5L3KXaA3-O--42">
          <mxGeometry y="34" width="200" height="76" as="geometry" />
        </mxCell>
        <mxCell id="vKOiAcxIJ5L3KXaA3-O--45" value="" style="endArrow=block;endSize=16;endFill=0;html=1;rounded=0;edgeStyle=orthogonalEdgeStyle;" edge="1" parent="1" source="vjhniqQhDacA8CHbRB0J-144" target="vKOiAcxIJ5L3KXaA3-O--42">
          <mxGeometry width="160" relative="1" as="geometry">
            <mxPoint x="1600" y="1091" as="sourcePoint" />
            <mxPoint x="2040" y="1300" as="targetPoint" />
            <Array as="points">
              <mxPoint x="1970" y="1310" />
              <mxPoint x="1970" y="1310" />
            </Array>
          </mxGeometry>
        </mxCell>
        <mxCell id="vKOiAcxIJ5L3KXaA3-O--46" value="" style="endArrow=block;endSize=16;endFill=0;html=1;rounded=0;edgeStyle=orthogonalEdgeStyle;" edge="1" parent="1" source="vjhniqQhDacA8CHbRB0J-147" target="vKOiAcxIJ5L3KXaA3-O--42">
          <mxGeometry width="160" relative="1" as="geometry">
            <mxPoint x="1990" y="1330" as="sourcePoint" />
            <mxPoint x="1990" y="1240" as="targetPoint" />
            <Array as="points">
              <mxPoint x="2110" y="1270" />
              <mxPoint x="2110" y="1270" />
            </Array>
          </mxGeometry>
        </mxCell>
        <mxCell id="MW0wBxwSJ_RHP9YVrrTt-13" value="" style="endArrow=open;html=1;edgeStyle=orthogonalEdgeStyle;rounded=0;endFill=0;" edge="1" parent="1" source="vjhniqQhDacA8CHbRB0J-166" target="vKOiAcxIJ5L3KXaA3-O--42">
          <mxGeometry relative="1" as="geometry">
            <mxPoint x="1470" y="1270" as="sourcePoint" />
            <mxPoint x="1630" y="1270" as="targetPoint" />
            <Array as="points">
              <mxPoint x="1120" y="1450" />
            </Array>
          </mxGeometry>
        </mxCell>
        <mxCell id="MW0wBxwSJ_RHP9YVrrTt-16" value="EvaluatedMushroom" style="edgeLabel;html=1;align=center;verticalAlign=middle;resizable=0;points=[];" connectable="0" vertex="1" parent="MW0wBxwSJ_RHP9YVrrTt-13">
          <mxGeometry x="0.0097" y="-3" relative="1" as="geometry">
            <mxPoint x="163" y="-3" as="offset" />
          </mxGeometry>
        </mxCell>
        <mxCell id="MW0wBxwSJ_RHP9YVrrTt-17" value="1" style="edgeLabel;html=1;align=center;verticalAlign=middle;resizable=0;points=[];" connectable="0" vertex="1" parent="MW0wBxwSJ_RHP9YVrrTt-13">
          <mxGeometry x="0.967" y="-3" relative="1" as="geometry">
            <mxPoint x="7" y="-13" as="offset" />
          </mxGeometry>
        </mxCell>
        <mxCell id="MW0wBxwSJ_RHP9YVrrTt-18" value="1" style="edgeLabel;html=1;align=center;verticalAlign=middle;resizable=0;points=[];" connectable="0" vertex="1" parent="MW0wBxwSJ_RHP9YVrrTt-13">
          <mxGeometry x="-0.934" y="-2" relative="1" as="geometry">
            <mxPoint x="-8" y="-23" as="offset" />
          </mxGeometry>
        </mxCell>
        <mxCell id="MW0wBxwSJ_RHP9YVrrTt-19" value="" style="endArrow=block;endFill=0;endSize=12;html=1;rounded=0;edgeStyle=orthogonalEdgeStyle;" edge="1" parent="1" source="vjhniqQhDacA8CHbRB0J-221" target="vjhniqQhDacA8CHbRB0J-123">
          <mxGeometry width="160" relative="1" as="geometry">
            <mxPoint x="1470" y="890" as="sourcePoint" />
            <mxPoint x="1630" y="890" as="targetPoint" />
            <Array as="points">
              <mxPoint x="1368" y="800" />
            </Array>
          </mxGeometry>
        </mxCell>
        <mxCell id="vjhniqQhDacA8CHbRB0J-172" value="" style="endArrow=block;endFill=0;endSize=12;html=1;rounded=0;edgeStyle=orthogonalEdgeStyle;" edge="1" parent="1" source="vjhniqQhDacA8CHbRB0J-229" target="vjhniqQhDacA8CHbRB0J-166">
          <mxGeometry width="160" relative="1" as="geometry">
            <mxPoint x="1238" y="1273.5" as="sourcePoint" />
            <mxPoint x="1213" y="1062.5" as="targetPoint" />
            <Array as="points">
              <mxPoint x="1160" y="1200" />
              <mxPoint x="1160" y="1200" />
            </Array>
          </mxGeometry>
        </mxCell>
        <mxCell id="w65FPDCF1ZwKtbe_ZVgD-3" value="&lt;div&gt;&lt;b&gt;SplitSpore&lt;/b&gt;&lt;/div&gt;" style="swimlane;fontStyle=0;childLayout=stackLayout;horizontal=1;startSize=26;fillColor=none;horizontalStack=0;resizeParent=1;resizeParentMax=0;resizeLast=0;collapsible=1;marginBottom=0;whiteSpace=wrap;html=1;" vertex="1" parent="1">
          <mxGeometry x="1270" y="544.5" width="170" height="52" as="geometry" />
        </mxCell>
        <mxCell id="w65FPDCF1ZwKtbe_ZVgD-4" value="+eatSpore(i: Insect)" style="text;strokeColor=none;fillColor=none;align=left;verticalAlign=top;spacingLeft=4;spacingRight=4;overflow=hidden;rotatable=0;points=[[0,0.5],[1,0.5]];portConstraint=eastwest;whiteSpace=wrap;html=1;" vertex="1" parent="w65FPDCF1ZwKtbe_ZVgD-3">
          <mxGeometry y="26" width="170" height="26" as="geometry" />
        </mxCell>
        <mxCell id="w65FPDCF1ZwKtbe_ZVgD-5" value="" style="endArrow=none;html=1;rounded=0;edgeStyle=orthogonalEdgeStyle;" edge="1" parent="1">
          <mxGeometry width="50" height="50" relative="1" as="geometry">
            <mxPoint x="1530" y="510" as="sourcePoint" />
            <mxPoint x="1350" y="544.5" as="targetPoint" />
            <Array as="points">
              <mxPoint x="1559" y="510" />
              <mxPoint x="1350" y="510" />
            </Array>
          </mxGeometry>
        </mxCell>
        <mxCell id="w65FPDCF1ZwKtbe_ZVgD-7" value="" style="endArrow=block;endSize=16;endFill=0;html=1;rounded=0;edgeStyle=elbowEdgeStyle;" edge="1" parent="1" source="vjhniqQhDacA8CHbRB0J-135">
          <mxGeometry width="160" relative="1" as="geometry">
            <mxPoint x="1400" y="1120" as="sourcePoint" />
            <mxPoint x="1480" y="1030" as="targetPoint" />
            <Array as="points">
              <mxPoint x="1360" y="1040" />
            </Array>
          </mxGeometry>
        </mxCell>
        <mxCell id="w65FPDCF1ZwKtbe_ZVgD-8" value="SustainingTecton" style="swimlane;fontStyle=1;align=center;verticalAlign=top;childLayout=stackLayout;horizontal=1;startSize=26;horizontalStack=0;resizeParent=1;resizeParentMax=0;resizeLast=0;collapsible=1;marginBottom=0;whiteSpace=wrap;html=1;" vertex="1" parent="1">
          <mxGeometry x="1410" y="1120" width="180" height="80" as="geometry" />
        </mxCell>
        <mxCell id="w65FPDCF1ZwKtbe_ZVgD-9" value="" style="line;strokeWidth=1;fillColor=none;align=left;verticalAlign=middle;spacingTop=-1;spacingLeft=3;spacingRight=3;rotatable=0;labelPosition=right;points=[];portConstraint=eastwest;strokeColor=inherit;" vertex="1" parent="w65FPDCF1ZwKtbe_ZVgD-8">
          <mxGeometry y="26" width="180" height="8" as="geometry" />
        </mxCell>
        <mxCell id="w65FPDCF1ZwKtbe_ZVgD-10" value="+accept(v: TectonVisitor, m: Mushroom)" style="text;strokeColor=none;fillColor=none;align=left;verticalAlign=top;spacingLeft=4;spacingRight=4;overflow=hidden;rotatable=0;points=[[0,0.5],[1,0.5]];portConstraint=eastwest;whiteSpace=wrap;html=1;" vertex="1" parent="w65FPDCF1ZwKtbe_ZVgD-8">
          <mxGeometry y="34" width="180" height="46" as="geometry" />
        </mxCell>
        <mxCell id="w65FPDCF1ZwKtbe_ZVgD-11" value="" style="endArrow=block;endSize=16;endFill=0;html=1;rounded=0;edgeStyle=orthogonalEdgeStyle;" edge="1" parent="1" source="w65FPDCF1ZwKtbe_ZVgD-8" target="vjhniqQhDacA8CHbRB0J-130">
          <mxGeometry width="160" relative="1" as="geometry">
            <mxPoint x="1534.6700000000003" y="1119.9999999999998" as="sourcePoint" />
            <mxPoint x="1534.6700000000003" y="1059.9999999999998" as="targetPoint" />
            <Array as="points">
              <mxPoint x="1540" y="1090" />
              <mxPoint x="1540" y="1090" />
            </Array>
          </mxGeometry>
        </mxCell>
        <mxCell id="w65FPDCF1ZwKtbe_ZVgD-12" value="&lt;span style=&quot;color: rgb(32, 33, 34); font-family: sans-serif; text-align: start;&quot;&gt;«&lt;/span&gt;Use&lt;span style=&quot;color: rgb(32, 33, 34); font-family: sans-serif; text-align: start;&quot;&gt;»&lt;/span&gt;" style="endArrow=open;endSize=12;dashed=1;html=1;rounded=0;edgeStyle=orthogonalEdgeStyle;" edge="1" parent="1" source="vjhniqQhDacA8CHbRB0J-166" target="w65FPDCF1ZwKtbe_ZVgD-8">
          <mxGeometry x="0.2105" width="160" relative="1" as="geometry">
            <mxPoint x="1190" y="1054" as="sourcePoint" />
            <mxPoint x="1680" y="1220" as="targetPoint" />
            <Array as="points">
              <mxPoint x="1200" y="1230" />
              <mxPoint x="1500" y="1230" />
            </Array>
            <mxPoint as="offset" />
          </mxGeometry>
        </mxCell>
        <mxCell id="w65FPDCF1ZwKtbe_ZVgD-14" value="CarnivorousMycelium" style="swimlane;fontStyle=1;align=center;verticalAlign=top;childLayout=stackLayout;horizontal=1;startSize=26;horizontalStack=0;resizeParent=1;resizeParentMax=0;resizeLast=0;collapsible=1;marginBottom=0;whiteSpace=wrap;html=1;" vertex="1" parent="1">
          <mxGeometry x="1660" y="1330" width="180" height="80" as="geometry" />
        </mxCell>
        <mxCell id="w65FPDCF1ZwKtbe_ZVgD-15" value="" style="line;strokeWidth=1;fillColor=none;align=left;verticalAlign=middle;spacingTop=-1;spacingLeft=3;spacingRight=3;rotatable=0;labelPosition=right;points=[];portConstraint=eastwest;strokeColor=inherit;" vertex="1" parent="w65FPDCF1ZwKtbe_ZVgD-14">
          <mxGeometry y="26" width="180" height="8" as="geometry" />
        </mxCell>
        <mxCell id="w65FPDCF1ZwKtbe_ZVgD-16" value="+onTurnBegin()" style="text;strokeColor=none;fillColor=none;align=left;verticalAlign=top;spacingLeft=4;spacingRight=4;overflow=hidden;rotatable=0;points=[[0,0.5],[1,0.5]];portConstraint=eastwest;whiteSpace=wrap;html=1;" vertex="1" parent="w65FPDCF1ZwKtbe_ZVgD-14">
          <mxGeometry y="34" width="180" height="46" as="geometry" />
        </mxCell>
        <mxCell id="w65FPDCF1ZwKtbe_ZVgD-17" value="" style="endArrow=block;endSize=16;endFill=0;html=1;rounded=0;edgeStyle=orthogonalEdgeStyle;" edge="1" parent="1" source="w65FPDCF1ZwKtbe_ZVgD-14" target="vjhniqQhDacA8CHbRB0J-146">
          <mxGeometry width="160" relative="1" as="geometry">
            <mxPoint x="1654" y="1310" as="sourcePoint" />
            <mxPoint x="1834" y="1280" as="targetPoint" />
            <Array as="points">
              <mxPoint x="1750" y="1290" />
            </Array>
          </mxGeometry>
        </mxCell>
        <mxCell id="f49Gzx70Mj5p2NsSIT8Y-1" value="" style="endArrow=block;dashed=1;endFill=0;endSize=12;html=1;rounded=0;jumpStyle=arc;jumpSize=12;edgeStyle=orthogonalEdgeStyle;" edge="1" parent="1" source="vjhniqQhDacA8CHbRB0J-138" target="vjhniqQhDacA8CHbRB0J-158">
          <mxGeometry width="160" relative="1" as="geometry">
            <mxPoint x="2050" y="1370" as="sourcePoint" />
            <mxPoint x="1980" y="745" as="targetPoint" />
            <Array as="points">
              <mxPoint x="1760" y="910" />
              <mxPoint x="1920" y="910" />
            </Array>
          </mxGeometry>
        </mxCell>
      </root>
    </mxGraphModel>
  </diagram>
</mxfile>
